<?xml version="1.0" encoding="UTF-8"?> <svg xmlns="http://www.w3.org/2000/svg" width="533" height="388" viewBox="0 0 533 388" fill="none"><path d="M529.685 172.426C508.91 169.394 487.639 169.74 466.88 173.243C434.41 178.709 403.01 192.128 377.061 212.582C375.954 213.441 374.802 214.373 373.639 215.311C371.145 211.287 368.137 207.59 364.336 204.671C360.995 202.086 356.927 200.127 352.719 199.567C343.78 198.22 333.431 202.317 330.036 211.222C326.516 220.154 331.682 230.428 339.815 234.802C342.8 236.433 346.293 237.329 349.655 237.512C355.684 237.833 361.271 236.27 366.523 233.629C367.01 233.38 367.488 233.12 367.963 232.855C375.631 252.483 377.629 273.824 377.281 294.898C376.967 312.527 375.171 330.486 373.258 348.077C372.701 352.647 371.897 357.126 370.252 361.246C369.788 362.379 369.246 363.556 368.611 364.601C367.36 366.746 365.553 368.702 363.589 370.12C361.625 371.456 359.803 372.289 357.632 372.432L357.376 372.46L357.127 372.447C356.798 372.446 356.467 372.442 356.143 372.384L355.9 372.359C352.093 371.751 348.976 368.354 347.178 364.976C345.436 361.698 344.695 358.378 344.055 354.539C343.479 350.98 343.1 346.926 342.535 343.155C342.257 341.361 341.529 337.04 341.264 335.309C338.079 317.623 333.273 300.051 325.95 283.539C321.789 274.25 316.905 265.272 311.048 256.909C309.479 254.738 307.569 252.047 305.748 250.063C304.587 248.736 303.03 247.174 301.732 245.986L300.863 245.235L299.991 244.488C279.19 227.171 247.803 228.816 228.893 248.189C228.156 248.99 227.266 249.931 226.562 250.74L225.112 252.523C224.176 253.684 223.286 254.99 222.441 256.211C206.935 280.214 203.389 309.472 198.157 336.612C196.739 343.944 195.362 351.062 193.061 357.965C192.335 360.102 191.53 362.142 190.633 363.821C189.757 365.516 188.76 366.848 188.017 367.47C187.645 367.792 187.365 367.971 187.139 368.06C186.594 368.288 185.779 368.229 185.152 368.19C184.889 368.159 184.534 368.128 184.273 368.08C167.323 365.095 164.253 339.238 164.042 324.852C163.856 303.585 164.671 282.152 163.633 260.808C162.713 242.214 159.766 223.715 155.157 205.704C150.569 186.441 142.675 168.6 135.228 150.729C160.419 158.961 185.074 169.065 210.367 176.943C240.484 186.287 272.408 193.109 304.079 189.466C314.821 188.265 325.462 185.766 335.601 182.009C376.555 166.755 408.51 129.019 415.791 85.7842C418.616 69.1866 417.427 51.4166 410.265 35.9599C401.78 17.6154 384.371 2.68384 363.883 0.389355L363.326 0.311634C363.139 0.290464 362.952 0.2809 362.765 0.26495L360.521 0.0996474L359.399 0.0230852L358.279 0.0138103C345.321 -0.27851 332.765 4.10919 321.391 9.43185C303.48 17.5907 286.667 29.5138 266.996 32.1635C265.346 32.3659 263.699 32.5228 262.044 32.5243L260.392 32.5451C260.255 32.546 260.117 32.5527 259.979 32.5486L259.563 32.5272L258.731 32.4857L257.066 32.4088C256.111 32.3215 254.64 32.1464 253.715 32.0475C225.695 27.7146 202.271 7.83714 173.553 4.26724C172.363 4.16835 170.293 3.89053 169.157 3.86994L166.935 3.77598C166.563 3.76525 166.195 3.73741 165.822 3.74205C165.076 3.74263 163.223 3.80411 162.458 3.80643C160.993 3.88473 159.423 4.01668 157.966 4.16516L155.729 4.50359L154.612 4.67759C146.064 6.15804 137.757 9.83639 130.82 14.8705C114.847 26.4447 104.367 44.728 100.919 63.9936C100.592 65.9067 100.189 68.3955 100.01 70.3104L99.7799 72.421L99.7228 72.9488L99.6897 73.4763L99.625 74.5313C98.222 94.9488 102.979 115.269 109.735 134.407C104.697 133.289 99.6276 132.295 94.5193 131.463C63.5925 126.177 30.3983 126.775 1.61519 140.532C0.246677 141.18 -0.374503 142.805 0.233337 144.204C0.853647 145.632 2.51593 146.287 3.94389 145.666C31.9153 133.401 63.5232 133.754 93.0664 139.546C99.9147 140.839 106.68 142.421 113.388 144.208C121.507 165.035 131.215 184.936 136.918 206.406C142.033 225.714 145.296 245.53 145.968 265.497C146.672 283.371 146.182 301.25 146.23 319.235C146.212 334.801 147.395 350.485 154.679 364.798C160.71 376.627 172.008 385.62 185.754 385.822C202.449 385.94 208.686 368.917 211.983 355.467C219.099 326.262 220.052 294.905 234.845 268.489C236.471 265.7 238.307 262.948 240.519 260.589C245.436 255.194 252.097 251.499 259.228 249.976C269.989 247.678 281.774 250.478 290.109 257.722C290.85 258.315 291.712 259.176 292.42 259.852C293.013 260.514 294 261.513 294.52 262.211C304.693 275.101 311.957 290.155 317.396 305.608C321.402 317.299 324.418 329.536 326.496 341.8C328.02 349.763 328.272 357.779 330.88 365.713C335.268 379.445 347.817 390.595 362.873 386.771C372.131 384.303 379.226 377.332 383.067 368.844C385.84 362.817 387.039 356.168 387.749 349.784C388.56 341.899 389.15 334.297 389.772 326.418C392.326 292.607 392.651 256.966 378.722 225.244C379.452 224.648 380.175 224.048 380.893 223.45C421.216 189.015 476.005 173.318 528.784 179.332C530.646 179.549 532.358 178.245 532.63 176.376C532.906 174.471 531.588 172.704 529.685 172.426ZM119.489 104.08C116.996 91.8965 116.078 79.3526 118.245 67.0812C120.846 52.244 128.796 37.9603 141.006 28.9871C146.246 25.1759 152.137 22.5648 158.467 21.5878L160.051 21.3326L161.654 21.1905L162.456 21.1168C162.724 21.0916 162.99 21.0603 163.261 21.0637L164.884 21.0269L165.695 21.0043C165.966 20.9973 166.241 21.0223 166.514 21.0292L168.153 21.0904C168.698 21.0927 169.252 21.1667 169.803 21.2163L171.457 21.3714C172.011 21.4364 172.568 21.535 173.123 21.6133C173.679 21.702 174.233 21.7641 174.792 21.8717L176.469 22.2061C177.029 22.3165 177.588 22.4163 178.151 22.5659C197.73 27.2819 215.351 38.6119 235.006 44.8052C244.328 47.8267 254.72 49.7529 264.686 49.0751C282.866 47.9534 299.216 39.1737 314.804 30.891C327.478 24.2656 340.493 16.9811 354.782 15.9284C355.762 15.8278 357.033 15.8281 358.04 15.8313L358.852 15.8249L359.658 15.8794C369.006 16.2474 377.558 20.2132 384.502 26.4163C408.191 47.6391 405.283 84.3974 392.891 111.019C378.724 141.962 350.215 166.279 317.004 174.265C302.04 178.076 286.374 178.886 271.005 177.768C222.186 174.07 177.415 153.118 130.759 139.781C126.152 128.148 122.053 116.38 119.489 104.08ZM350.412 226.044C348.652 225.901 346.999 225.485 345.477 224.64C341.266 222.27 338.423 215.831 343.709 212.904C346.523 211.326 350.229 211.178 353.204 212.399C354.431 212.946 355.633 213.68 356.678 214.529C359.411 216.751 361.514 219.595 363.269 222.681C359.285 224.89 354.919 226.368 350.412 226.044Z" fill="#5ABFEA"></path></svg> 