<?xml version="1.0" encoding="UTF-8"?> <svg xmlns="http://www.w3.org/2000/svg" width="311" height="227" viewBox="0 0 311 227" fill="none"><path d="M309.259 100.937C297.13 99.1671 284.71 99.3693 272.59 101.415C253.633 104.606 235.299 112.44 220.149 124.383C219.503 124.884 218.83 125.429 218.151 125.976C216.695 123.627 214.939 121.468 212.719 119.764C210.769 118.255 208.394 117.111 205.937 116.784C200.718 115.998 194.675 118.389 192.693 123.589C190.638 128.803 193.654 134.802 198.403 137.356C200.146 138.308 202.185 138.831 204.148 138.938C207.668 139.126 210.93 138.213 213.997 136.671C214.281 136.526 214.56 136.374 214.837 136.219C219.314 147.679 220.481 160.139 220.277 172.443C220.094 182.736 219.045 193.222 217.929 203.492C217.603 206.16 217.134 208.775 216.173 211.181C215.903 211.843 215.586 212.53 215.215 213.14C214.485 214.392 213.43 215.534 212.283 216.362C211.137 217.142 210.073 217.628 208.805 217.712L208.656 217.728L208.511 217.721C208.318 217.72 208.125 217.718 207.936 217.684L207.794 217.669C205.571 217.314 203.751 215.331 202.702 213.359C201.685 211.445 201.252 209.506 200.878 207.265C200.542 205.187 200.321 202.82 199.991 200.619C199.829 199.571 199.404 197.048 199.249 196.037C197.389 185.711 194.583 175.452 190.308 165.811C187.878 160.388 185.027 155.146 181.607 150.264C180.691 148.996 179.576 147.424 178.512 146.266C177.835 145.491 176.925 144.58 176.168 143.886L175.66 143.448L175.151 143.011C163.006 132.901 144.681 133.861 133.64 145.172C133.21 145.64 132.69 146.189 132.28 146.661L131.433 147.703C130.886 148.38 130.367 149.143 129.873 149.856C120.82 163.87 118.75 180.952 115.695 196.798C114.867 201.079 114.063 205.235 112.72 209.265C112.296 210.513 111.826 211.704 111.302 212.684C110.791 213.674 110.209 214.452 109.775 214.815C109.557 215.003 109.394 215.107 109.262 215.159C108.944 215.293 108.468 215.258 108.102 215.235C107.948 215.217 107.741 215.199 107.589 215.171C97.6924 213.428 95.9001 198.332 95.7765 189.932C95.668 177.515 96.1441 165.002 95.538 152.54C95.0009 141.683 93.2803 130.883 90.5895 120.367C87.9105 109.12 83.3014 98.7035 78.9536 88.2698C93.6612 93.0759 108.056 98.9751 122.824 103.575C140.408 109.03 159.047 113.013 177.538 110.886C183.81 110.185 190.023 108.726 195.943 106.533C219.854 97.6265 238.51 75.594 242.761 50.3512C244.411 40.6606 243.717 30.2855 239.535 21.261C234.581 10.5504 224.417 1.8326 212.455 0.492952L212.13 0.447574C212.021 0.435214 211.911 0.42963 211.802 0.420317L210.492 0.323805L209.837 0.279103L209.183 0.273688C201.617 0.103016 194.287 2.66479 187.646 5.77246C177.188 10.536 167.372 17.4974 155.887 19.0445C154.924 19.1626 153.962 19.2542 152.996 19.2551L152.031 19.2673C151.951 19.2678 151.871 19.2717 151.79 19.2693L151.547 19.2568L151.061 19.2326L150.09 19.1877C149.532 19.1367 148.673 19.0345 148.133 18.9767C131.773 16.4469 118.097 4.84138 101.33 2.75707C100.635 2.69934 99.4267 2.53713 98.7635 2.52511L97.4656 2.47025C97.2489 2.46398 97.0339 2.44773 96.8158 2.45044C96.3805 2.45078 95.2984 2.48668 94.8522 2.48803C93.9967 2.53375 93.0798 2.61079 92.2291 2.69748L90.9234 2.89507L90.2708 2.99666C85.2803 3.86103 80.4302 6.00866 76.38 8.94785C67.0543 15.7055 60.9351 26.3803 58.9219 37.6286C58.7314 38.7456 58.4958 40.1987 58.3916 41.3167L58.257 42.549L58.2237 42.8572L58.2044 43.1652L58.1666 43.7811C57.3474 55.702 60.1246 67.5659 64.0694 78.7399C61.1276 78.0868 58.1681 77.5069 55.1856 77.0211C37.1288 73.935 17.7482 74.2836 0.943035 82.3159C0.144024 82.6943 -0.218655 83.6428 0.136235 84.4598C0.498406 85.2938 1.46894 85.6762 2.30266 85.3133C18.6339 78.1524 37.0884 78.3586 54.3373 81.74C58.3357 82.4954 62.2859 83.4192 66.2021 84.4623C70.9425 96.6219 76.6106 108.242 79.9402 120.777C82.9266 132.05 84.8316 143.619 85.2243 155.277C85.6352 165.713 85.3492 176.152 85.3774 186.653C85.3667 195.741 86.0575 204.898 90.3103 213.255C93.8314 220.161 100.428 225.412 108.453 225.53C118.201 225.599 121.843 215.66 123.768 207.807C127.922 190.755 128.479 172.448 137.115 157.024C138.065 155.396 139.136 153.789 140.428 152.412C143.299 149.262 147.188 147.105 151.352 146.215C157.634 144.873 164.515 146.508 169.382 150.738C169.815 151.084 170.318 151.587 170.731 151.982C171.077 152.368 171.653 152.952 171.957 153.359C177.897 160.885 182.138 169.674 185.313 178.696C187.652 185.522 189.413 192.667 190.627 199.827C191.516 204.477 191.663 209.157 193.186 213.789C195.748 221.806 203.075 228.317 211.866 226.084C217.271 224.643 221.413 220.573 223.656 215.617C225.274 212.098 225.975 208.216 226.389 204.489C226.863 199.885 227.207 195.447 227.571 190.847C229.062 171.106 229.252 150.297 221.119 131.776C221.545 131.427 221.967 131.077 222.387 130.728C245.929 110.623 277.918 101.458 308.733 104.97C309.821 105.096 310.82 104.335 310.979 103.244C311.14 102.132 310.371 101.1 309.259 100.937ZM69.764 61.0335C68.3087 53.9199 67.773 46.596 69.0382 39.4314C70.5566 30.7685 75.198 22.4289 82.3271 17.1899C85.3867 14.9647 88.8257 13.4402 92.5221 12.8698L93.4464 12.7208L94.3827 12.6378L94.8509 12.5948C95.007 12.5801 95.1624 12.5618 95.3211 12.5638L96.2684 12.5423L96.7422 12.5291C96.9001 12.525 97.0608 12.5396 97.22 12.5437L98.1773 12.5794C98.4953 12.5807 98.8185 12.6239 99.1402 12.6529L100.106 12.7435C100.429 12.7814 100.755 12.8389 101.079 12.8847C101.403 12.9365 101.727 12.9727 102.053 13.0355L103.032 13.2307C103.359 13.2953 103.686 13.3535 104.014 13.4409C115.446 16.1943 125.734 22.8094 137.209 26.4254C142.652 28.1895 148.72 29.3141 154.538 28.9184C165.153 28.2635 174.699 23.1374 183.8 18.3015C191.2 14.4332 198.799 10.1801 207.141 9.56552C207.714 9.50677 208.456 9.50694 209.043 9.5088L209.518 9.50507L209.988 9.5369C215.446 9.75177 220.439 12.0672 224.493 15.6889C238.324 28.0799 236.626 49.5415 229.391 65.0845C221.12 83.1509 204.475 97.3483 185.084 102.011C176.348 104.236 167.201 104.709 158.228 104.056C129.725 101.898 103.585 89.6643 76.3444 81.8775C73.6543 75.0857 71.2613 68.2147 69.764 61.0335ZM204.59 132.243C203.562 132.159 202.597 131.916 201.708 131.423C199.25 130.039 197.59 126.279 200.676 124.571C202.319 123.65 204.483 123.563 206.22 124.276C206.936 124.595 207.638 125.024 208.248 125.52C209.844 126.817 211.072 128.477 212.096 130.279C209.77 131.569 207.221 132.432 204.59 132.243Z" fill="white"></path></svg> 