<?xml version="1.0" encoding="UTF-8"?> <svg xmlns="http://www.w3.org/2000/svg" width="970" height="895" viewBox="0 0 970 895" fill="none"><path d="M626.499 0C696.814 5.8679e-10 749.554 0.00153476 790.177 5.46289C830.798 10.9243 859.297 21.8466 881.14 43.6885C902.984 65.531 913.91 94.0316 919.371 134.654C924.834 175.275 924.834 228.019 924.834 298.333V596.667C924.834 630.216 924.832 659.764 924.239 685.904C925.094 692.512 927.09 698.389 930.201 703.564C935.203 710.389 940.47 716.414 945.997 721.646C952.614 727.376 960.061 732.068 968.345 735.724L969.603 736.283V743.785H921.245C920.835 748.148 920.378 752.385 919.868 756.5L919.371 760.343C913.91 800.968 902.986 829.469 881.142 851.312L881.14 851.31C859.298 873.151 830.8 884.078 790.177 889.539C749.555 894.999 696.814 895 626.499 895H298.333C228.02 895 175.278 894.999 134.657 889.537C94.0341 884.076 65.5318 873.155 43.6885 851.31C21.8463 829.467 10.9244 800.966 5.46289 760.343C0.00149945 719.722 2.59091e-10 666.982 0 596.667V298.333C2.04821e-09 228.019 0.00163287 175.278 5.46289 134.657C10.9244 94.0343 21.8451 65.5316 43.6885 43.6885C65.5316 21.8451 94.0343 10.9244 134.657 5.46289C175.278 0.00163248 228.019 2.04784e-09 298.333 0H626.499ZM402.522 678.234C402.523 687.959 405.21 696.316 410.538 703.399C416.264 709.79 422.472 715.487 429.158 720.495L430.522 721.5L430.534 721.508L431.995 722.583C439.281 727.882 446.527 732.205 456.311 735.627L473.342 739.848L472.861 743.785H393.825C378.842 743.785 365.549 742.363 353.97 739.488L351.676 738.893C339.511 735.603 326.853 729.33 313.703 720.143L312.577 719.427L312.647 719.353C299.771 709.725 285.301 697.052 269.254 681.35C252.807 665.256 232.691 644.349 208.911 618.643L208.889 618.62L208.868 618.598L208.854 618.579L208.85 618.575L102.735 494.106L102.729 494.099C89.2064 478.11 77.1939 466.778 66.6914 459.98L66.6758 459.97L66.6338 459.943L66.5947 459.912L66.5889 459.908L65.6895 459.267C56.6041 452.952 44.0143 449.533 33.7178 449.119L32.2705 678.152L33.7227 715.796L33.7266 715.818V722.354C34.47 734.622 35.4813 745.819 36.8662 756.12C41.6987 792.065 50.5424 812.617 64.707 827.482L66.0957 828.904L67.5176 830.292C82.3837 844.458 102.936 853.302 138.878 858.134C176.894 863.246 227.116 863.313 298.333 863.313H626.499C697.715 863.313 747.935 863.244 785.954 858.134C823.055 853.147 843.759 843.882 858.736 828.904L860.124 827.482C874.29 812.617 883.136 792.064 887.968 756.12L888.434 752.521C888.786 749.677 889.111 746.766 889.412 743.785H839.738V736.283L840.365 736.004L840.995 735.726L840.997 735.724C849.291 732.064 856.744 727.364 863.365 721.628L863.394 721.601C866.563 718.875 871.041 715.85 874.95 712.888C879.01 709.814 882.591 706.722 884.634 703.581C888.907 696.479 891.084 688.057 891.084 678.234V219.348L657.87 746.542L657.311 747.8H641.843L641.561 747.181L641.277 746.561L641.275 746.559L402.522 219.052V678.234ZM361.358 200.14C359.455 200.14 356.537 200.371 353.117 200.612C341.254 205.293 328.855 211.192 315.927 218.324C303.075 225.723 291.922 234.438 282.454 244.449L282.426 244.479L282.395 244.509L282.376 244.525L81.2295 436.38C94.9164 440.931 107.352 448.511 118.528 459.083C130.459 470.368 140.707 481.132 149.26 491.382L240.922 598.156C258.984 617.91 276.477 636.329 293.406 653.411C310.867 669.928 328.598 684.303 346.595 696.541L350.091 698.812C357.128 703.298 364.287 707.402 371.563 711.132C373.631 708.784 375.596 706.261 377.441 703.546L377.464 703.507L377.495 703.468L377.509 703.449C382.862 696.355 385.562 687.981 385.562 678.234V242.996C385.562 233.244 382.86 224.867 377.501 217.77L377.488 217.755L377.479 217.74L377.464 217.718L377.449 217.697L377.441 217.685C374.851 213.871 371.942 209.383 368.942 205.809C367.448 204.028 366.001 202.564 364.643 201.559C363.26 200.536 362.175 200.14 361.358 200.14ZM298.333 31.6865C227.116 31.6865 176.895 31.7549 138.878 36.8662C101.776 41.8545 81.0733 51.118 66.0957 66.0957C51.118 81.0733 41.8545 101.776 36.8662 138.878C34.6709 155.206 33.4077 173.786 32.6787 195.313V239.139L33.7227 432.787C42.2755 432.674 52.027 431.886 56.9961 430.497C62.8493 428.476 68.8082 424.665 74.8613 418.942C89.5819 404.482 105.152 389.488 121.567 373.961C137.98 358.435 154.109 343.178 169.955 328.188L217.495 283.222C233.321 268.249 247.734 254.348 260.731 241.52C270.263 231.437 275.928 222.901 278.048 215.886L278.059 215.843L278.079 215.787L278.091 215.754L278.093 215.752C280.853 208.44 281.551 202.756 280.564 198.53L280.531 198.398L280.523 198.322L280.518 198.272C279.993 193.811 278.471 190.954 276.249 189.272L276.203 189.239L276.16 189.206L276.119 189.169L276.078 189.13L276.071 189.123C274.697 187.822 273.585 186.904 272.731 186.326C272.286 186.026 271.965 185.854 271.754 185.763C271.519 185.662 271.48 185.684 271.578 185.685H269.468V177.445H426.388L426.669 178.064L426.953 178.686L661.852 697.149L891.432 178.327C890.668 163.81 889.564 150.75 887.968 138.88C882.981 101.779 873.715 81.0736 858.736 66.0957C843.759 51.1181 823.056 41.8544 785.954 36.8662C747.935 31.7549 697.716 31.6865 626.499 31.6865H298.333Z" fill="#8B92B1"></path></svg> 